<svg xmlns="http://www.w3.org/2000/svg" viewBox="0 0 442.66 142.3"><defs><style>.cls-1{fill:#36a9e1;}.cls-2,.cls-4{fill:#95c11f;}.cls-3{fill:#426f0b;}.cls-4{fill-rule:evenodd;}</style></defs><title>logo-gtb-by-processor</title><g id="Camada_2" data-name="Camada 2"><g id="Camada_1-2" data-name="Camada 1"><path class="cls-1" d="M50.9,104.1a31.2,31.2,0,0,1-18.5,5.7,31.21,31.21,0,0,1-22.9-9.5A31.36,31.36,0,0,1,0,77.4,31.21,31.21,0,0,1,9.5,54.5,31.34,31.34,0,0,1,32.4,45a31.18,31.18,0,0,1,22.9,9.5,31.32,31.32,0,0,1,9.5,22.9v32.4a31.14,31.14,0,0,1-9.5,22.9,31.31,31.31,0,0,1-22.9,9.5V128.3a18.44,18.44,0,0,0,18.5-18.38V104.1ZM32.4,95.9A18.44,18.44,0,0,0,50.9,77.52V77.4A18.43,18.43,0,0,0,32.52,58.9H32.4a17.88,17.88,0,0,0-13.1,5.4,18.59,18.59,0,0,0,0,26.2A17.75,17.75,0,0,0,32.4,95.9Z"/><path class="cls-1" d="M102,109.8a31.21,31.21,0,0,1-22.9-9.5,31.36,31.36,0,0,1-9.5-22.9A32.45,32.45,0,0,1,102,45a31.18,31.18,0,0,1,22.9,9.5,31.32,31.32,0,0,1,9.5,22.9,31.14,31.14,0,0,1-9.5,22.9A31,31,0,0,1,102,109.8Zm13-19.3a18.53,18.53,0,1,0-13,5.39A18.59,18.59,0,0,0,115,90.5Z"/><path class="cls-2" d="M153,58.9V77.4a18.45,18.45,0,0,0,18.38,18.5h.12v13.9a31.21,31.21,0,0,1-22.9-9.5,31.36,31.36,0,0,1-9.5-22.9V26.5H153V45h18.5V58.9Z"/><path class="cls-2" d="M208.8,109.8a31.21,31.21,0,0,1-22.9-9.5,31.36,31.36,0,0,1-9.5-22.9,32.39,32.39,0,0,1,55.3-22.9,31.32,31.32,0,0,1,9.5,22.9,31.14,31.14,0,0,1-9.5,22.9A31,31,0,0,1,208.8,109.8Zm13.1-19.3a18.53,18.53,0,1,0-13,5.39A18.59,18.59,0,0,0,221.9,90.5Z"/><path class="cls-1" d="M259.9,50.7a32.58,32.58,0,0,1,41.4,3.8,31.32,31.32,0,0,1,9.5,22.9,32.4,32.4,0,0,1-64.8,0V26.5h13.9Zm31.6,39.8a18.53,18.53,0,1,0-13,5.39A18.59,18.59,0,0,0,291.5,90.5Z"/><rect class="cls-1" x="315.6" y="45" width="13.9" height="64.8"/><path class="cls-1" d="M334.3,45h64.8l-37,50.9h37v13.9H334.3l37-50.9h-37Z"/><path class="cls-2" d="M418.6,39.1a4.37,4.37,0,0,0,.42-6.18,4.16,4.16,0,0,0-.42-.42l-10-9.3c-7.4-6.9-3-18.1,2.3-23.2l26.6,24.8a14.62,14.62,0,0,1,3.7,5.1c2.7,5.5,1.7,12-3.5,16.8L411,71.4c-7.1-6.8-9.5-16.3-2.1-23.2Z"/><path class="cls-3" d="M418.6,39.1a4.37,4.37,0,0,0,.42-6.18,4.16,4.16,0,0,0-.42-.42l-10-9.3c-7.4-6.9-3-18.1,2.3-23.2l14.8,13.8C434.7,22.6,427.7,32.3,418.6,39.1Z"/><rect class="cls-1" x="315.6" y="26.5" width="13.9" height="13.9"/><path class="cls-4" d="M271.53,132.73l.37-2.26,1.29-7.56c-3.44,5.08-4.91,4.2-5.85,8L265.52,142H270l1.15-7h3.65a8.08,8.08,0,0,0,7.76-6.45l.09-.58a5,5,0,0,0-5.13-5.88H273.9c-.58.76-1.37,1.51-1.9,2.27h2.5a3.22,3.22,0,0,1,3.39,3,3.42,3.42,0,0,1-.06.78l-.06.38a5.25,5.25,0,0,1-5,4.19Zm2.37-10.65h-5.11l-1.45,8.8a75,75,0,0,1,6.56-8.8m67.72,17.82a11.51,11.51,0,0,1-3.29.6c-4.66,0-5.49-4.55-5.1-6.89H343l.09-.51c.51-3.15-1.24-5.16-5.77-5.16-5.38,0-7.72,2.76-8.34,6.54-1,5.74,2.72,7.82,7,7.82a14,14,0,0,0,5.44-1Zm-8.16-7.73c.21-.63,1.06-2.88,3.46-2.88s2.43,1.9,2.27,2.88Zm-7.9,7.82a11.91,11.91,0,0,1-3.3.52c-3.74,0-5.29-3.54-4.7-7.11.33-2,1.5-4.09,3.38-4.09s1.87,1.18,1.47,3.6h4.42c.51-3.11-.66-5-5.49-5-5.11,0-7.82,2.67-8.47,6.62-.9,5.49,2.48,7.72,7.24,7.72a16.76,16.76,0,0,0,5.21-.84Zm30.08-11.54a16.59,16.59,0,0,0-3.72-.51c-4.15,0-6.16,2-6.5,4.06-.22,1.33.1,2.1,1.67,3.37s4.35,2.17,4.12,3.55c-.14.83-1.16,1.38-2.66,1.38a6.47,6.47,0,0,1-4.08-1.67l-.51,3.11a16.08,16.08,0,0,0,4.19.56c3.36,0,6.46-1.13,7-4.13.26-1.59-.25-2.45-1.82-3.69s-4.28-2.13-4.06-3.46c.15-1,1.38-1.3,2.23-1.3a5.87,5.87,0,0,1,3.72,1.59Zm13.11,0a16,16,0,0,0-3.72-.51c-4.14,0-6.15,2-6.49,4.06-.22,1.33.1,2.1,1.67,3.37s4.34,2.17,4.11,3.55c-.13.83-1.15,1.38-2.65,1.38a6.47,6.47,0,0,1-4.08-1.67l-.52,3.11a16.16,16.16,0,0,0,4.2.56c3.36,0,6.46-1.13,7-4.13.26-1.59-.25-2.45-1.83-3.69-1.42-1.15-4.27-2.13-4.06-3.46.16-1,1.38-1.3,2.24-1.3a5.87,5.87,0,0,1,3.72,1.59ZM387.24,142h4.15l1-6.14c.5-3.05,2.15-4.29,6.29-4.29l.6-3.6c-3.12.17-4.71,1.95-6.14,3.74h-.07l.13-.77h0a9.12,9.12,0,0,0,0-2.66H389a10.4,10.4,0,0,1-.07,3.05Zm-8.11-12.1c1.62,0,2.55,2.3,2.09,5.11s-2.15,5.12-3.77,5.12-2.55-2.3-2.09-5.12,2.16-5.11,3.77-5.11m.36-2.18c4.29,0,7.24,3.28,6.58,7.29a9.25,9.25,0,0,1-9,7.29c-4.28,0-7.24-3.27-6.58-7.29s4.7-7.29,9-7.29M282.76,142h4.15l1-6.14c.5-3.05,2.15-4.29,6.29-4.29l.6-3.6c-3.12.17-4.71,1.95-6.14,3.74h-.07l.13-.77h0a9.12,9.12,0,0,0,0-2.66h-4.16a10.4,10.4,0,0,1-.07,3.05Zm20.83-12.1c1.61,0,2.55,2.3,2.09,5.11s-2.16,5.12-3.78,5.12-2.55-2.3-2.08-5.12,2.15-5.11,3.77-5.11m.35-2.18c4.29,0,7.25,3.28,6.59,7.29s-4.7,7.29-9,7.29S294.31,139,295,135a9.27,9.27,0,0,1,9-7.29"/><polygon class="cls-4" points="273.13 124.2 272.57 124.64 268.84 131.79 267.26 131.4 268.01 126.8 271.07 123.17 273.9 122.08 274 123.48 273.13 124.2"/><path class="cls-2" d="M248.32,122.2h1.41l-.92,4.18h0a3.31,3.31,0,0,1,2.62-1.25c2.29,0,3.37,1.46,3.37,3.57,0,2.57-1.63,5.08-4.53,5.08a2.88,2.88,0,0,1-2.89-1.72h0l-.32,1.53H245.8Zm3.15,4.16c-2.47,0-3.5,2.43-3.5,4.19a2.06,2.06,0,0,0,2,2.08l.3,0c2,0,3.12-2.27,3.12-3.88C253.43,127.42,252.78,126.36,251.47,126.36Z"/><path class="cls-2" d="M258.44,135c-.7,1.07-1.33,1.95-2.77,1.95a2.49,2.49,0,0,1-1-.21l.25-1.1a1.79,1.79,0,0,0,.81.22,1.53,1.53,0,0,0,1.33-.89l.86-1.38-1.51-8.27h1.51l1,6.58h0l3.6-6.58h1.54Z"/></g></g></svg>